<svg xmlns="http://www.w3.org/2000/svg" width="100" height="120" viewBox="0 0 167 187" fill="none">
  <path d="M17.9688 7.77823C21.5108 7.77823 24.3821 4.90689 24.3821 1.36491C24.3821 1.19892 24.3758 1.0344 24.3634 0.871582H33.2807C33.2684 1.0344 33.2621 1.19892 33.2621 1.36491C33.2621 4.90689 36.1333 7.77823 39.6754 7.77823C43.2174 7.77823 46.0887 4.90689 46.0887 1.36491C46.0887 1.19892 46.0824 1.0344 46.07 0.871582H54.9873C54.975 1.0344 54.9687 1.19892 54.9687 1.36491C54.9687 4.90689 57.84 7.77823 61.382 7.77823C64.924 7.77823 67.7953 4.90689 67.7953 1.36491C67.7953 1.19892 67.789 1.0344 67.7767 0.871582H76.6939C76.6816 1.0344 76.6753 1.19892 76.6753 1.36491C76.6753 4.90689 79.5466 7.77823 83.0886 7.77823C86.6306 7.77823 89.5019 4.90689 89.5019 1.36491C89.5019 1.19892 89.4956 1.0344 89.4833 0.871582H98.4005C98.3882 1.0344 98.3819 1.19892 98.3819 1.36491C98.3819 4.90689 101.253 7.77823 104.795 7.77823C108.337 7.77823 111.209 4.90689 111.209 1.36491C111.209 1.19892 111.203 1.0344 111.19 0.871582H120.107C120.094 1.0344 120.088 1.19892 120.088 1.36491C120.088 4.90689 122.96 7.77823 126.502 7.77823C130.044 7.77823 132.915 4.90689 132.915 1.36491C132.915 1.19892 132.909 1.0344 132.896 0.871582H141.814C141.801 1.0344 141.795 1.19892 141.795 1.36491C141.795 4.90689 144.666 7.77823 148.208 7.77823C151.751 7.77823 154.622 4.90689 154.622 1.36491C154.622 1.19892 154.616 1.0344 154.603 0.871582H166.462V12.7302C166.299 12.7179 166.134 12.7115 165.968 12.7115C162.426 12.7115 159.555 15.5828 159.555 19.1249C159.555 22.6669 162.426 25.5382 165.968 25.5382C166.134 25.5382 166.299 25.5319 166.462 25.5195V34.4368C166.299 34.4245 166.134 34.4182 165.968 34.4182C162.426 34.4182 159.555 37.2894 159.555 40.8315C159.555 44.3735 162.426 47.2448 165.968 47.2448C166.134 47.2448 166.299 47.2385 166.462 47.2261V56.1434C166.299 56.1311 166.134 56.1248 165.968 56.1248C162.426 56.1248 159.555 58.9961 159.555 62.5381C159.555 66.0801 162.426 68.9514 165.968 68.9514C166.134 68.9514 166.299 68.9451 166.462 68.9328V77.85C166.299 77.8377 166.134 77.8314 165.968 77.8314C162.426 77.8314 159.555 80.7027 159.555 84.2447C159.555 87.7867 162.426 90.658 165.968 90.658C166.134 90.658 166.299 90.6517 166.462 90.6394V99.5567C166.299 99.5439 166.134 99.538 165.968 99.538C162.426 99.538 159.555 102.409 159.555 105.951C159.555 109.493 162.426 112.365 165.968 112.365C166.134 112.365 166.299 112.359 166.462 112.346V121.263C166.299 121.251 166.134 121.245 165.968 121.245C162.426 121.245 159.555 124.116 159.555 127.658C159.555 131.2 162.426 134.071 165.968 134.071C166.134 134.071 166.299 134.065 166.462 134.052V142.97C166.299 142.957 166.134 142.951 165.968 142.951C162.426 142.951 159.555 145.822 159.555 149.365C159.555 152.907 162.426 155.778 165.968 155.778C166.134 155.778 166.299 155.772 166.462 155.759V164.677C166.299 164.664 166.134 164.658 165.968 164.658C162.426 164.658 159.555 167.529 159.555 171.071C159.555 174.613 162.426 177.484 165.968 177.484C166.134 177.484 166.299 177.479 166.462 177.466V186.364H154.603C154.351 183.053 151.585 180.444 148.208 180.444C144.832 180.444 142.065 183.053 141.814 186.364H132.896C132.645 183.053 129.878 180.444 126.502 180.444C123.125 180.444 120.359 183.053 120.107 186.364H111.19C110.938 183.053 108.172 180.444 104.795 180.444C101.419 180.444 98.6525 183.053 98.4005 186.364H89.4833C89.2313 183.053 86.4646 180.444 83.0886 180.444C79.7126 180.444 76.9459 183.053 76.6939 186.364H67.7767C67.5247 183.053 64.758 180.444 61.382 180.444C58.006 180.444 55.2393 183.053 54.9873 186.364H46.07C45.818 183.053 43.0513 180.444 39.6754 180.444C36.2994 180.444 33.5327 183.053 33.2807 186.364H24.3634C24.1114 183.053 21.3447 180.444 17.9688 180.444C14.5928 180.444 11.8261 183.053 11.5741 186.364H0.702148V177.466C0.864969 177.479 1.02949 177.484 1.19548 177.484C4.73746 177.484 7.6088 174.613 7.6088 171.071C7.6088 167.529 4.73746 164.658 1.19548 164.658C1.02949 164.658 0.864969 164.664 0.702148 164.677V155.759C0.864969 155.772 1.02949 155.778 1.19548 155.778C4.73746 155.778 7.6088 152.907 7.6088 149.365C7.6088 145.822 4.73746 142.951 1.19548 142.951C1.02949 142.951 0.864969 142.957 0.702148 142.97V134.052C0.864969 134.065 1.02949 134.071 1.19548 134.071C4.73746 134.071 7.6088 131.2 7.6088 127.658C7.6088 124.116 4.73746 121.245 1.19548 121.245C1.02949 121.245 0.864969 121.251 0.702148 121.263V112.346C0.864969 112.359 1.02949 112.365 1.19548 112.365C4.73746 112.365 7.6088 109.493 7.6088 105.951C7.6088 102.409 4.73746 99.538 1.19548 99.538C1.02949 99.538 0.864969 99.5439 0.702148 99.5567V90.6394C0.864969 90.6517 1.02949 90.658 1.19548 90.658C4.73746 90.658 7.6088 87.7867 7.6088 84.2447C7.6088 80.7027 4.73746 77.8314 1.19548 77.8314C1.02949 77.8314 0.864969 77.8377 0.702148 77.85V68.9328C0.864969 68.9451 1.02949 68.9514 1.19548 68.9514C4.73746 68.9514 7.6088 66.0801 7.6088 62.5381C7.6088 58.9961 4.73746 56.1248 1.19548 56.1248C1.02949 56.1248 0.864969 56.1311 0.702148 56.1434V47.2261C0.864969 47.2385 1.02949 47.2448 1.19548 47.2448C4.73746 47.2448 7.6088 44.3735 7.6088 40.8315C7.6088 37.2894 4.73746 34.4182 1.19548 34.4182C1.02949 34.4182 0.864969 34.4245 0.702148 34.4368V25.5195C0.864969 25.5319 1.02949 25.5382 1.19548 25.5382C4.73746 25.5382 7.6088 22.6669 7.6088 19.1249C7.6088 15.5828 4.73746 12.7115 1.19548 12.7115C1.02949 12.7115 0.864969 12.7179 0.702148 12.7302V0.871582H11.5741C11.5618 1.0344 11.5555 1.19892 11.5555 1.36491C11.5555 4.90689 14.4267 7.77823 17.9688 7.77823Z" fill="white"/>
  <mask id="mask0_144_547" style="mask-type:luminance" maskUnits="userSpaceOnUse" x="14" y="16" width="139" height="155">
    <path d="M148.702 16.6582H18.4623C16.2826 16.6582 14.5156 18.4252 14.5156 20.6049V166.631C14.5156 168.811 16.2826 170.578 18.4623 170.578H148.702C150.882 170.578 152.649 168.811 152.649 166.631V20.6049C152.649 18.4252 150.882 16.6582 148.702 16.6582Z" fill="white"/>
  </mask>
  <g mask="url(#mask0_144_547)">
    <path d="M148.702 16.6582H18.4623C16.2826 16.6582 14.5156 18.4252 14.5156 20.6049V166.631C14.5156 168.811 16.2826 170.578 18.4623 170.578H148.702C150.882 170.578 152.649 168.811 152.649 166.631V20.6049C152.649 18.4252 150.882 16.6582 148.702 16.6582Z" fill="#FFE6C8"/>
    <path d="M80.4607 45.3432C81.7214 40.6759 87.5969 36.7358 87.5969 36.7358C87.5969 36.7358 90.2096 42.7459 88.9487 47.4132C87.688 52.0806 82.276 56.4329 82.276 56.4329C82.276 56.4329 79.1998 50.0106 80.4607 45.3432Z" fill="#ACCC5F"/>
    <path d="M77.5496 42.7755C73.478 37.8765 64.0298 36.4854 64.0298 36.4854C64.0298 36.4854 63.8981 45.2734 67.9696 50.1724C72.0413 55.0715 81.2127 57.1602 81.2127 57.1602C81.2127 57.1602 81.6212 47.6746 77.5496 42.7755Z" fill="#BBD468"/>
    <path d="M41.6491 87.7211C52.2751 87.7211 60.8891 79.1071 60.8891 68.4812C60.8891 57.8552 52.2751 49.2412 41.6491 49.2412C31.0232 49.2412 22.4092 57.8552 22.4092 68.4812C22.4092 79.1071 31.0232 87.7211 41.6491 87.7211Z" fill="#454545"/>
    <path d="M40.6618 81.7781C48.0182 81.7781 53.9817 75.8146 53.9817 68.4581C53.9817 61.1017 48.0182 55.1382 40.6618 55.1382C33.3053 55.1382 27.3418 61.1017 27.3418 68.4581C27.3418 75.8146 33.3053 81.7781 40.6618 81.7781Z" fill="#FFDED0"/>
    <path d="M126.502 87.7211C137.128 87.7211 145.742 79.1071 145.742 68.4812C145.742 57.8552 137.128 49.2412 126.502 49.2412C115.876 49.2412 107.262 57.8552 107.262 68.4812C107.262 79.1071 115.876 87.7211 126.502 87.7211Z" fill="#454545"/>
    <path d="M126.502 81.7781C133.858 81.7781 139.822 75.8146 139.822 68.4581C139.822 61.1017 133.858 55.1382 126.502 55.1382C119.145 55.1382 113.182 61.1017 113.182 68.4581C113.182 75.8146 119.145 81.7781 126.502 81.7781Z" fill="#FFDED0"/>
    <path d="M140.808 103.659C140.808 129.009 115.188 152.818 83.582 152.818C51.9767 152.818 26.3555 129.009 26.3555 103.659C26.3555 78.3086 51.9767 50.2046 83.582 50.2046C115.188 50.2046 140.808 78.3086 140.808 103.659Z" fill="#FBFBFB"/>
    <path d="M52.9956 111.378C60.0795 111.378 65.8222 105.635 65.8222 98.5512C65.8222 91.4673 60.0795 85.7246 52.9956 85.7246C45.9116 85.7246 40.1689 91.4673 40.1689 98.5512C40.1689 105.635 45.9116 111.378 52.9956 111.378Z" fill="#454545"/>
    <path d="M59.546 92.246C57.4224 91.0199 54.707 91.7475 53.4809 93.8711C52.2548 95.9947 52.9824 98.7102 55.106 99.9363C57.2296 101.162 59.9451 100.435 61.1712 98.3111C62.3972 96.1875 61.6696 93.472 59.546 92.246Z" fill="white"/>
    <path d="M52.837 101.373C51.4213 100.556 49.6109 101.041 48.7936 102.457C47.9762 103.872 48.4613 105.683 49.877 106.5C51.2927 107.317 53.103 106.832 53.9204 105.417C54.7378 104.001 54.2527 102.191 52.837 101.373Z" fill="white"/>
    <path d="M116.142 111.378C123.226 111.378 128.969 105.635 128.969 98.5512C128.969 91.4673 123.226 85.7246 116.142 85.7246C109.058 85.7246 103.315 91.4673 103.315 98.5512C103.315 105.635 109.058 111.378 116.142 111.378Z" fill="#454545"/>
    <path d="M122.693 92.246C120.569 91.0199 117.853 91.7475 116.627 93.8711C115.401 95.9947 116.129 98.7102 118.253 99.9363C120.376 101.162 123.092 100.435 124.318 98.3111C125.544 96.1875 124.816 93.472 122.693 92.246Z" fill="white"/>
    <path d="M115.984 101.373C114.569 100.556 112.758 101.041 111.941 102.457C111.124 103.872 111.609 105.683 113.024 106.5C114.44 107.317 116.251 106.832 117.068 105.417C117.885 104.001 117.4 102.191 115.984 101.373Z" fill="white"/>
    <path d="M46.5816 125.191C50.6685 125.191 53.9816 122.762 53.9816 119.765C53.9816 116.767 50.6685 114.338 46.5816 114.338C42.4947 114.338 39.1816 116.767 39.1816 119.765C39.1816 122.762 42.4947 125.191 46.5816 125.191Z" fill="#FFC6AD"/>
    <path d="M122.555 125.191C126.642 125.191 129.955 122.762 129.955 119.765C129.955 116.767 126.642 114.338 122.555 114.338C118.468 114.338 115.155 116.767 115.155 119.765C115.155 122.762 118.468 125.191 122.555 125.191Z" fill="#FFC6AD"/>
    <path d="M84.546 113.36H84.546C83.9607 113.36 83.4863 113.834 83.4863 114.42V121.094C83.4863 121.68 83.9607 122.154 84.546 122.154H84.546C85.1312 122.154 85.6056 121.68 85.6056 121.094V114.42C85.6056 113.834 85.1312 113.36 84.546 113.36Z" fill="#454545"/>
    <path d="M84.5045 115.545C88.484 115.545 91.7101 113.508 91.7101 110.995C91.7101 108.482 88.484 106.445 84.5045 106.445C80.5249 106.445 77.2988 108.482 77.2988 110.995C77.2988 113.508 80.5249 115.545 84.5045 115.545Z" fill="#454545"/>
    <path d="M80.8163 110.109C81.4483 110.109 81.9607 109.617 81.9607 109.01C81.9607 108.403 81.4483 107.911 80.8163 107.911C80.1842 107.911 79.6719 108.403 79.6719 109.01C79.6719 109.617 80.1842 110.109 80.8163 110.109Z" fill="white"/>
    <path d="M77.1689 119.758C80.9837 123.056 88.1542 123.056 91.9689 119.758" stroke="#454545" stroke-width="2.46666" stroke-linecap="round"/>
    <path d="M74.1735 98.3397C74.1735 110.57 63.797 120.574 50.8811 120.574C37.9654 120.574 27.5889 110.57 27.5889 98.3397C27.5889 86.1102 37.9654 76.1045 50.8811 76.1045C63.797 76.1045 74.1735 86.1102 74.1735 98.3397Z" stroke="#323232" stroke-width="2.46666"/>
    <path d="M139.576 98.3397C139.576 110.57 129.199 120.574 116.284 120.574C103.368 120.574 92.9912 110.57 92.9912 98.3397C92.9912 86.1102 103.368 76.1045 116.284 76.1045C129.199 76.1045 139.576 86.1102 139.576 98.3397Z" stroke="#323232" stroke-width="2.46666"/>
    <path d="M74.3164 96.6159C81.296 95.4273 85.392 95.4487 92.8469 96.6159V100.948C85.728 99.8647 81.6687 99.8489 74.3164 100.948V96.6159Z" fill="#242424"/>
    <path d="M107.735 124.912C107.961 124.547 107.817 124.066 107.428 123.884C103.095 121.855 100.505 120.352 96.5364 117.682C96.1812 117.443 95.6952 117.566 95.4996 117.947C91.8263 125.091 89.541 129.245 85.0759 136.197C80.8205 144.459 78.2797 149.003 73.3176 156.863C69.7069 164.194 67.4201 168.272 63.0715 174.957C62.8588 175.284 62.9481 175.722 63.2724 175.939C67.3335 178.648 69.9483 180.144 74.3593 182.247C74.7054 182.412 75.1213 182.272 75.2979 181.931C78.97 174.85 81.3039 170.799 85.6122 163.859C89.9872 155.664 92.5826 151.151 97.3705 143.193C101.204 135.832 103.454 131.793 107.735 124.912Z" fill="#BCD466"/>
    <path opacity="0.25" fill-rule="evenodd" clip-rule="evenodd" d="M70.5003 180.318C68.0867 179.037 66.0076 177.764 63.2724 175.939C62.9481 175.722 62.8588 175.284 63.0715 174.957C67.4201 168.272 69.7069 164.194 73.3176 156.863C78.2797 149.003 80.8205 144.459 85.0758 136.197C89.541 129.245 91.8263 125.091 95.4995 117.947C95.6952 117.566 96.1811 117.443 96.5363 117.682C97.5975 118.396 98.5603 119.027 99.4843 119.606C99.3024 119.658 99.1408 119.781 99.0466 119.965C95.3734 127.109 93.0881 131.264 88.6229 138.215C84.3675 146.477 81.8268 151.021 76.8646 158.881C73.2539 166.212 70.9671 170.291 66.6185 176.975C66.4059 177.302 66.4952 177.741 66.8195 177.957C68.166 178.855 69.3536 179.621 70.5003 180.318ZM103.729 122.057C104.853 122.649 106.053 123.24 107.428 123.884C107.632 123.98 107.768 124.158 107.82 124.358C106.378 123.615 105.08 122.883 103.729 122.057Z" fill="#BCD466"/>
    <path d="M103.803 145.796C106.529 149.738 105.72 157.02 105.72 157.02C105.72 157.02 99.4717 155.424 96.7462 151.481C94.0204 147.537 94.217 140.38 94.217 140.38C94.217 140.38 101.078 141.853 103.803 145.796Z" fill="#ACCC5F"/>
    <path d="M109.66 144.557C115.667 142.079 120.311 133.224 120.311 133.224C120.311 133.224 112.171 130.361 106.165 132.839C100.158 135.318 94.9619 143.682 94.9619 143.682C94.9619 143.682 103.653 147.035 109.66 144.557Z" fill="#BBD468"/>
    <path d="M63.4322 151.174C60.4033 145.883 61.486 137.169 61.486 137.169C61.486 137.169 68.591 140.245 71.62 145.536C74.6489 150.828 74.2688 159.502 74.2688 159.502C74.2688 159.502 66.4612 156.466 63.4322 151.174Z" fill="#ACCC5F"/>
    <path d="M69.3157 146.807C68.9243 141.56 73.1315 135.098 73.1315 135.098C73.1315 135.098 77.7057 140.052 78.0971 145.298C78.4885 150.545 74.7832 157.24 74.7832 157.24C74.7832 157.24 69.7071 152.053 69.3157 146.807Z" fill="#BBD468"/>
    <path d="M89.0735 135.099L96.2725 139.195C97.6796 139.996 98.1713 141.785 97.3707 143.192C96.5701 144.599 94.7803 145.091 93.3732 144.291L86.1742 140.194C84.7671 139.394 84.2754 137.604 85.076 136.197C85.8767 134.79 87.6664 134.298 89.0735 135.099Z" fill="#8BB554"/>
    <path d="M77.4758 155.481L84.6748 159.577C86.082 160.378 86.5736 162.168 85.773 163.575C84.9724 164.982 83.1827 165.473 81.7756 164.673L74.5766 160.577C73.1694 159.776 72.6778 157.986 73.4784 156.579C74.279 155.172 76.0687 154.681 77.4758 155.481Z" fill="#8BB554"/>
  </g>
</svg>